<svg enable-background="new -0.777 -0.298 50 60" height="346.410162" viewBox="-.777 -.298 50 60" width="288.675135" xmlns="http://www.w3.org/2000/svg"><path d="m.062.063h48.543v59.518h-48.543z" fill="#005787"/><path d="m48.605 59.58h-.062v-59.456h-48.419v59.395h48.481v.061h-.062.062v.063h-48.605v-59.643h48.667v59.643h-.062z" fill="#005787"/><g fill="#ffe500"><path d="m23.493 12.073h-10.016l3.206 3.219-5.361 5.361-4.357-4.36.002-11.652 9.115-.004"/><path d="m23.493 12.073v.062h-9.867l3.145 3.157-5.449 5.449-4.419-4.422.002-11.741 9.203-.003 7.534 7.56h-.149v-.062l-.044.044-7.393-7.418-9.027.003-.002 11.566 4.295 4.297 5.273-5.273-3.267-3.281h10.165v.062l-.044.044z"/><path d="m25.055 31.921 10.106-.009-3.224-3.201 5.283-5.282 4.456 4.274v11.649h-9.19"/><path d="m25.055 31.921v-.062l9.956-.008-3.162-3.14 5.37-5.369 4.519 4.335v11.736h-9.278l-7.555-7.554h.15v.062l.044-.044 7.413 7.412h9.102v-11.56l-4.393-4.212-5.196 5.194 3.286 3.264-10.256.008v-.062l.044-.044z"/><path d="m30.108 27.813c-2.996 2.997-7.714 3.179-10.937.581l16.31-16.32-10.423.002 7.435-7.438h9.184l-.001 11.595"/><path d="m30.108 27.813.044.044c-1.611 1.612-3.72 2.416-5.828 2.416-1.839 0-3.679-.611-5.192-1.831l-.054-.043 16.253-16.264-10.423.002 7.559-7.562h9.271l-.001 11.682-11.585 11.6-.088-.088 11.549-11.563.001-11.506h-9.095l-7.311 7.313 10.423-.002-16.416 16.427-.044-.044.039-.049c1.49 1.201 3.302 1.804 5.114 1.804 2.077 0 4.152-.791 5.74-2.38z"/><path d="m18.511 16.189c3-2.997 7.739-3.19 10.961-.583l-16.363 16.315 10.414.005-7.442 7.437h-9.12l.001-11.596 11.549-11.58"/><path d="m18.511 16.189-.044-.044c1.616-1.614 3.733-2.421 5.85-2.421 1.842 0 3.684.611 5.194 1.834l.054.043-16.306 16.258 10.414.005-7.566 7.56h-9.208l.001-11.684 11.673-11.704v.153h-.062l-.044-.044.044.044h-.062v-.003h.062l.044.044-11.531 11.562-.001 11.508h9.032l7.318-7.312-10.414-.005 16.469-16.421.044.044-.039.048c-1.488-1.204-3.302-1.806-5.116-1.806-2.085 0-4.17.794-5.762 2.385l-.106.104v-.148z"/></g><path d="m16.292 42.225h4.793l1.204 7.667.075.724.07-.718 1.154-7.673h4.846v12.674h-3.142v-9.675l.026-.441-.089.014-1.852 10.102h-2.292l-1.651-10.116h-.073l.02.456v9.66h-3.089" fill="#fff"/><path d="m29.661 42.225h3.407v12.674h-3.404" fill="#fff"/><path d="m36.125 45.206h-2.185v-2.981h7.775v2.981h-2.184l.001 9.693h-3.407" fill="#fff"/><path d="m14.485 42.738v3.452c-.873-.798-1.735-.913-2.444-.913-.686 0-1.186.388-1.186.854 0 .526.549.802 1.189 1.074.292.126 1.372.528 1.97 1.014.64.516 1.104 1.181 1.104 2.907 0 2.481-1.835 3.933-4.4 3.933-2.351 0-3.306-.684-3.306-.684v-3.556c1.522 1.349 3.874 1.553 3.97.308.027-.342-.239-.642-.709-.895-.851-.462-1.63-.874-1.95-1.077-.85-.529-1.595-1.138-1.595-3.215 0-2.871 2.499-3.85 4.057-3.85 1.781.001 3.059.547 3.3.648" fill="#fff"/></svg>